<mxfile host="65bd71144e">
    <diagram id="vTopmT27BK8X7Rn-oSU2" name="Page-1">
        <mxGraphModel dx="934" dy="763" grid="1" gridSize="10" guides="1" tooltips="1" connect="1" arrows="1" fold="1" page="1" pageScale="1" pageWidth="780" pageHeight="580" math="0" shadow="0">
            <root>
                <mxCell id="0"/>
                <mxCell id="1" parent="0"/>
                <mxCell id="6" style="edgeStyle=none;html=1;fontSize=16;fontFamily=Fira;strokeWidth=2;" parent="1" source="2" target="3" edge="1">
                    <mxGeometry relative="1" as="geometry"/>
                </mxCell>
                <mxCell id="10" value="id" style="edgeLabel;html=1;align=center;verticalAlign=middle;resizable=0;points=[];fontStyle=2;fontSize=16;fontFamily=Fira;" parent="6" vertex="1" connectable="0">
                    <mxGeometry x="0.2698" y="1" relative="1" as="geometry">
                        <mxPoint x="-7" as="offset"/>
                    </mxGeometry>
                </mxCell>
                <mxCell id="7" style="edgeStyle=none;html=1;dashed=1;fontSize=16;fontFamily=Fira;strokeWidth=2;" parent="1" source="2" target="4" edge="1">
                    <mxGeometry relative="1" as="geometry"/>
                </mxCell>
                <mxCell id="17" value="generalize" style="edgeLabel;html=1;align=center;verticalAlign=middle;resizable=0;points=[];fontSize=16;fontFamily=Fira;" parent="7" vertex="1" connectable="0">
                    <mxGeometry x="0.2083" relative="1" as="geometry">
                        <mxPoint x="2" y="-8" as="offset"/>
                    </mxGeometry>
                </mxCell>
                <mxCell id="2" value="" style="rounded=0;whiteSpace=wrap;html=1;fontSize=16;fontFamily=Fira;strokeWidth=2;" parent="1" vertex="1">
                    <mxGeometry x="70" y="10" width="300" height="200" as="geometry"/>
                </mxCell>
                <mxCell id="9" style="edgeStyle=none;html=1;dashed=1;fontSize=16;fontFamily=Fira;strokeWidth=2;" parent="1" source="3" target="5" edge="1">
                    <mxGeometry relative="1" as="geometry"/>
                </mxCell>
                <mxCell id="18" value="extend" style="edgeLabel;html=1;align=center;verticalAlign=middle;resizable=0;points=[];fontSize=16;fontFamily=Fira;" parent="9" vertex="1" connectable="0">
                    <mxGeometry x="0.2014" y="-1" relative="1" as="geometry">
                        <mxPoint x="-1" y="-8" as="offset"/>
                    </mxGeometry>
                </mxCell>
                <mxCell id="3" value="" style="rounded=0;whiteSpace=wrap;html=1;fontSize=16;fontFamily=Fira;strokeWidth=2;" parent="1" vertex="1">
                    <mxGeometry x="410" y="10" width="300" height="200" as="geometry"/>
                </mxCell>
                <mxCell id="8" style="edgeStyle=none;html=1;fontSize=16;fontFamily=Fira;strokeWidth=2;" parent="1" source="4" target="5" edge="1">
                    <mxGeometry relative="1" as="geometry"/>
                </mxCell>
                <mxCell id="11" value="project" style="edgeLabel;html=1;align=center;verticalAlign=middle;resizable=0;points=[];fontStyle=2;fontSize=16;fontFamily=Fira;" parent="8" vertex="1" connectable="0">
                    <mxGeometry x="0.1866" relative="1" as="geometry">
                        <mxPoint x="-15" as="offset"/>
                    </mxGeometry>
                </mxCell>
                <mxCell id="4" value="" style="rounded=0;whiteSpace=wrap;html=1;fontSize=16;fontFamily=Fira;strokeWidth=2;" parent="1" vertex="1">
                    <mxGeometry x="10" y="290" width="300" height="280" as="geometry"/>
                </mxCell>
                <mxCell id="5" value="" style="rounded=0;whiteSpace=wrap;html=1;fontSize=16;fontFamily=Fira;strokeWidth=2;" parent="1" vertex="1">
                    <mxGeometry x="470" y="290" width="300" height="280" as="geometry"/>
                </mxCell>
                <mxCell id="12" value="Data Model" style="rounded=0;whiteSpace=wrap;html=1;fontSize=16;fontFamily=Fira;strokeWidth=2;" parent="1" vertex="1">
                    <mxGeometry x="70" y="10" width="300" height="30" as="geometry"/>
                </mxCell>
                <mxCell id="13" value="Sprotty Model" style="rounded=0;whiteSpace=wrap;html=1;fontSize=16;fontFamily=Fira;strokeWidth=2;" parent="1" vertex="1">
                    <mxGeometry x="410" y="10" width="300" height="30" as="geometry"/>
                </mxCell>
                <mxCell id="14" value="Data Model with Variant Potentials" style="rounded=0;whiteSpace=wrap;html=1;fontSize=16;fontFamily=Fira;strokeWidth=2;" parent="1" vertex="1">
                    <mxGeometry x="10" y="290" width="300" height="30" as="geometry"/>
                </mxCell>
                <mxCell id="15" value="Sprotty Model with Conflict Visualization" style="rounded=0;whiteSpace=wrap;html=1;fontSize=16;fontFamily=Fira;strokeWidth=2;" parent="1" vertex="1">
                    <mxGeometry x="470" y="290" width="300" height="30" as="geometry"/>
                </mxCell>
                <mxCell id="19" value="{&lt;br style=&quot;font-size: 12px;&quot;&gt;&amp;nbsp; // …&lt;br style=&quot;font-size: 12px;&quot;&gt;&amp;nbsp; &quot;edges&quot;: [&lt;br&gt;&amp;nbsp; &amp;nbsp; {&lt;br&gt;&amp;nbsp; &amp;nbsp; &amp;nbsp; &quot;id&quot;: &lt;font color=&quot;#006600&quot;&gt;&quot;7b0f4e9c-fe…&quot;&lt;/font&gt;,&lt;br&gt;&amp;nbsp; &amp;nbsp; &amp;nbsp; &quot;sourceID&quot;:&amp;nbsp;&lt;font color=&quot;#003366&quot;&gt;&quot;4858046b-15…&quot;&lt;/font&gt;,&lt;br&gt;&amp;nbsp; &amp;nbsp; &amp;nbsp; &quot;targetID&quot;: &lt;font color=&quot;#003366&quot;&gt;&quot;cb2fe83e-af…&quot;&lt;/font&gt;,&lt;br&gt;&amp;nbsp; &amp;nbsp; &amp;nbsp; // …&lt;br&gt;&amp;nbsp; &amp;nbsp; }&lt;br style=&quot;font-size: 12px;&quot;&gt;&amp;nbsp; ]&lt;br style=&quot;font-size: 12px;&quot;&gt;}" style="rounded=0;whiteSpace=wrap;html=1;fontFamily=Source Code Pro;fontSize=12;align=left;verticalAlign=top;strokeWidth=2;spacingLeft=4;" parent="1" vertex="1">
                    <mxGeometry x="70" y="40" width="300" height="170" as="geometry"/>
                </mxCell>
                <mxCell id="20" value="{&lt;br style=&quot;border-color: var(--border-color);&quot;&gt;&amp;nbsp; // …&lt;br style=&quot;border-color: var(--border-color);&quot;&gt;&amp;nbsp; &quot;edges&quot;: [&lt;br style=&quot;border-color: var(--border-color);&quot;&gt;&amp;nbsp; &amp;nbsp; {&lt;br style=&quot;border-color: var(--border-color);&quot;&gt;&amp;nbsp; &amp;nbsp; &amp;nbsp; &quot;id&quot;: &lt;font color=&quot;#006600&quot;&gt;&quot;7b0f4e9c-fe…&quot;&lt;/font&gt;,&lt;br style=&quot;border-color: var(--border-color);&quot;&gt;&amp;nbsp; &amp;nbsp; &amp;nbsp; &quot;sourceID&quot;: [&lt;br&gt;&amp;nbsp; &amp;nbsp; &amp;nbsp; &amp;nbsp; &lt;font color=&quot;#003366&quot;&gt;&quot;4858046b-15…&quot;&lt;/font&gt;,&lt;br&gt;&amp;nbsp; &amp;nbsp; &amp;nbsp; ],&lt;br style=&quot;border-color: var(--border-color);&quot;&gt;&amp;nbsp; &amp;nbsp; &amp;nbsp; &quot;targetID&quot;: [&lt;br style=&quot;border-color: var(--border-color);&quot;&gt;&amp;nbsp; &amp;nbsp; &amp;nbsp; &amp;nbsp; &lt;font color=&quot;#003366&quot;&gt;&quot;cb2fe83e-af…&quot;&lt;/font&gt;,&lt;br style=&quot;border-color: var(--border-color);&quot;&gt;&amp;nbsp; &amp;nbsp; &amp;nbsp; &amp;nbsp; &lt;font color=&quot;#003366&quot;&gt;&quot;ce9c6dd9-c8…&quot;&lt;/font&gt;,&lt;br&gt;&amp;nbsp; &amp;nbsp; &amp;nbsp; ],&lt;br style=&quot;border-color: var(--border-color);&quot;&gt;&amp;nbsp; &amp;nbsp; &amp;nbsp; // …&lt;br style=&quot;border-color: var(--border-color);&quot;&gt;&amp;nbsp; &amp;nbsp; }&lt;br style=&quot;border-color: var(--border-color);&quot;&gt;&amp;nbsp; ]&lt;br style=&quot;border-color: var(--border-color);&quot;&gt;}" style="rounded=0;whiteSpace=wrap;html=1;fontFamily=Source Code Pro;fontSize=12;align=left;verticalAlign=top;strokeWidth=2;spacingLeft=4;" parent="1" vertex="1">
                    <mxGeometry x="10" y="320" width="300" height="250" as="geometry"/>
                </mxCell>
                <mxCell id="42" value="" style="rounded=0;whiteSpace=wrap;html=1;fontFamily=Source Code Pro;fontSize=12;fontColor=#003366;strokeWidth=2;" parent="1" vertex="1">
                    <mxGeometry x="410" y="40" width="300" height="170" as="geometry"/>
                </mxCell>
                <mxCell id="32" value="&lt;span style=&quot;font-size: 16px;&quot;&gt;Source&lt;/span&gt;" style="rounded=0;whiteSpace=wrap;html=1;fontSize=16;fontFamily=Fira;" parent="1" vertex="1">
                    <mxGeometry x="510" y="80" width="100" height="30" as="geometry"/>
                </mxCell>
                <mxCell id="33" value="&lt;span style=&quot;font-size: 16px;&quot;&gt;Target&lt;/span&gt;" style="rounded=0;whiteSpace=wrap;html=1;fontSize=16;fontFamily=Fira;" parent="1" vertex="1">
                    <mxGeometry x="510" y="140" width="100" height="30" as="geometry"/>
                </mxCell>
                <mxCell id="37" value="" style="endArrow=classic;html=1;fontSize=16;fontFamily=Fira;" parent="1" source="32" target="33" edge="1">
                    <mxGeometry width="50" height="50" relative="1" as="geometry">
                        <mxPoint x="660" y="100" as="sourcePoint"/>
                        <mxPoint x="730" y="75" as="targetPoint"/>
                    </mxGeometry>
                </mxCell>
                <mxCell id="43" value="" style="rounded=0;whiteSpace=wrap;html=1;fontFamily=Source Code Pro;fontSize=12;fontColor=#003366;strokeWidth=2;" parent="1" vertex="1">
                    <mxGeometry x="470" y="320" width="300" height="250" as="geometry"/>
                </mxCell>
                <mxCell id="21" value="&lt;span style=&quot;font-size: 16px;&quot;&gt;Source&lt;/span&gt;" style="rounded=0;whiteSpace=wrap;html=1;fontSize=16;fontFamily=Fira;" parent="1" vertex="1">
                    <mxGeometry x="570" y="377.5" width="100" height="30" as="geometry"/>
                </mxCell>
                <mxCell id="22" value="&lt;span style=&quot;font-size: 16px;&quot;&gt;Target A&lt;/span&gt;" style="rounded=0;whiteSpace=wrap;html=1;fontSize=16;fontFamily=Fira;" parent="1" vertex="1">
                    <mxGeometry x="500" y="482.5" width="100" height="30" as="geometry"/>
                </mxCell>
                <mxCell id="23" value="&lt;span style=&quot;font-size: 16px;&quot;&gt;Target B&lt;/span&gt;" style="rounded=0;whiteSpace=wrap;html=1;fontSize=16;fontFamily=Fira;" parent="1" vertex="1">
                    <mxGeometry x="640" y="482.5" width="100" height="30" as="geometry"/>
                </mxCell>
                <mxCell id="24" value="" style="endArrow=none;html=1;fontSize=16;fontFamily=Fira;" parent="1" source="21" target="29" edge="1">
                    <mxGeometry width="50" height="50" relative="1" as="geometry">
                        <mxPoint x="740" y="357.5" as="sourcePoint"/>
                        <mxPoint x="665" y="472.5" as="targetPoint"/>
                    </mxGeometry>
                </mxCell>
                <mxCell id="25" value="" style="endArrow=classic;html=1;fontSize=16;fontFamily=Fira;exitX=0.5;exitY=1;exitDx=0;exitDy=0;" parent="1" source="29" target="23" edge="1">
                    <mxGeometry width="50" height="50" relative="1" as="geometry">
                        <mxPoint x="718" y="347.5" as="sourcePoint"/>
                        <mxPoint x="765" y="297.5" as="targetPoint"/>
                    </mxGeometry>
                </mxCell>
                <mxCell id="26" value="" style="endArrow=classic;html=1;fontSize=16;fontFamily=Fira;exitX=0.5;exitY=1;exitDx=0;exitDy=0;" parent="1" source="29" target="22" edge="1">
                    <mxGeometry width="50" height="50" relative="1" as="geometry">
                        <mxPoint x="718.0000000000013" y="347.5" as="sourcePoint"/>
                        <mxPoint x="785" y="347.5" as="targetPoint"/>
                    </mxGeometry>
                </mxCell>
                <mxCell id="27" value="✓" style="rounded=1;whiteSpace=wrap;html=1;fontSize=8;fillColor=#E6E6E6;" parent="1" vertex="1">
                    <mxGeometry x="640" y="457.5" width="10" height="10" as="geometry"/>
                </mxCell>
                <mxCell id="28" value="✓" style="rounded=1;whiteSpace=wrap;html=1;fontSize=8;fillColor=#E6E6E6;" parent="1" vertex="1">
                    <mxGeometry x="590" y="457.5" width="10" height="10" as="geometry"/>
                </mxCell>
                <mxCell id="29" value="" style="rounded=0;whiteSpace=wrap;html=1;fontSize=16;fontFamily=Fira;" parent="1" vertex="1">
                    <mxGeometry x="610" y="422.5" width="20" height="20" as="geometry"/>
                </mxCell>
                <mxCell id="30" value="" style="verticalLabelPosition=bottom;verticalAlign=top;html=1;shape=mxgraph.basic.flash;fontSize=16;fontFamily=Fira;" parent="1" vertex="1">
                    <mxGeometry x="614.5" y="425" width="10" height="15" as="geometry"/>
                </mxCell>
            </root>
        </mxGraphModel>
    </diagram>
</mxfile>
